<?xml version="1.0" standalone="no"?>
<!DOCTYPE svg PUBLIC "-//W3C//DTD SVG 20010904//EN"
 "http://www.w3.org/TR/2001/REC-SVG-20010904/DTD/svg10.dtd">
<svg version="1.0" xmlns="http://www.w3.org/2000/svg"
 width="200.000000pt" height="200.000000pt" viewBox="0 0 200.000000 200.000000"
 preserveAspectRatio="xMidYMid meet">

<g transform="translate(0.000000,200.000000) scale(0.100000,-0.100000)"
fill="#006080" stroke="none">
<path d="M1064 1500 c-11 -19 -177 -257 -367 -529 -257 -364 -341 -492 -325
-487 13 3 60 6 104 6 l81 0 267 380 267 379 -3 143 -3 143 -21 -35z m-14 -186
l0 -55 -250 -357 c-138 -196 -257 -360 -265 -365 -9 -4 -34 -7 -56 -5 l-42 3
228 325 c359 511 366 521 376 515 5 -4 9 -31 9 -61z"/>
<path d="M1627 1506 c-6 -14 -606 -843 -694 -959 l-44 -57 103 0 103 0 270
372 270 372 5 143 c5 131 1 166 -13 129z m-27 -195 l0 -60 -245 -338 c-135
-186 -257 -348 -271 -360 -25 -23 -87 -32 -98 -15 -2 4 90 138 205 298 315
433 390 534 400 534 5 0 9 -27 9 -59z"/>
<path d="M1079 1128 c-10 -19 -359 -503 -437 -606 l-25 -33 103 3 103 3 133
181 132 181 3 147 c3 80 3 146 2 146 -1 0 -8 -10 -14 -22z m-139 -410 c-61
-84 -120 -161 -132 -170 -21 -19 -83 -24 -92 -9 -6 9 81 134 243 351 l86 115
3 -67 3 -67 -111 -153z"/>
<path d="M1430 853 c-118 -163 -228 -312 -244 -330 l-28 -33 105 0 104 0 134
183 134 182 5 148 c3 81 5 147 5 147 0 0 -97 -134 -215 -297z m170 91 c0 -30
-5 -65 -11 -77 -19 -35 -220 -311 -237 -324 -24 -19 -94 -17 -90 2 4 20 320
455 330 455 4 0 8 -25 8 -56z"/>
<path d="M1630 761 c0 -7 -140 -205 -182 -258 -8 -10 11 -13 90 -13 l101 0 3
140 c2 77 0 140 -4 140 -5 0 -8 -4 -8 -9z m-32 -183 c-3 -36 -7 -44 -27 -46
-38 -6 -43 11 -16 51 34 49 47 47 43 -5z"/>
</g>
</svg>
